<?xml version="1.0" standalone="no"?><!DOCTYPE svg PUBLIC "-//W3C//DTD SVG 1.1//EN" "http://www.w3.org/Graphics/SVG/1.1/DTD/svg11.dtd"><svg t="1557151466550" class="icon" style="" viewBox="0 0 1024 1024" version="1.1" xmlns="http://www.w3.org/2000/svg" p-id="3523" xmlns:xlink="http://www.w3.org/1999/xlink" width="200" height="200"><defs><style type="text/css"></style></defs><path d="M847.127 121.018H735.418V83.782c0-20.558-16.679-37.237-37.236-37.237-20.558 0-37.237 16.68-37.237 37.237v37.236h-297.89V83.782c0-20.558-16.68-37.237-37.237-37.237-20.558 0-37.236 16.68-37.236 37.237v37.236h-111.71c-61.672 0-111.708 50.037-111.708 111.71v633.017c0 61.673 50.036 111.71 111.709 111.71h670.254c61.673 0 111.71-50.037 111.71-111.71V232.727c0.129-61.672-49.908-111.709-111.71-111.709zM901.69 841.18c0 41.115-33.358 74.473-74.473 74.473h-630.69c-41.116 0.129-74.474-33.358-74.474-74.473V254.707c0-41.115 33.358-74.473 74.473-74.473h92.057v74.473c0 20.558 16.678 37.236 37.236 37.236 20.558 0 37.236-16.678 37.236-37.236v-74.473h297.891v74.473c0 20.558 16.68 37.236 37.237 37.236 20.557 0 37.236-16.678 37.236-37.236v-74.473h91.798c41.115 0 74.473 33.358 74.473 74.473V841.18z" p-id="3524"></path><path d="M675.426 401.196L464.808 611.943l-78.998-79.127c-14.61-14.48-38.141-14.48-52.622 0-14.61 14.481-14.61 38.142 0 52.752L438.56 690.94c14.481 14.481 38.142 14.481 52.623 0l236.994-236.994c14.61-14.61 14.61-38.14 0-52.751-14.61-14.48-38.142-14.48-52.752 0z" p-id="3525"></path></svg>