<?xml version="1.0" standalone="no"?><!DOCTYPE svg PUBLIC "-//W3C//DTD SVG 1.1//EN" "http://www.w3.org/Graphics/SVG/1.1/DTD/svg11.dtd"><svg t="1554974258493" class="icon" style="" viewBox="0 0 1024 1024" version="1.1" xmlns="http://www.w3.org/2000/svg" p-id="11307" xmlns:xlink="http://www.w3.org/1999/xlink" width="200" height="200"><defs><style type="text/css"></style></defs><path d="M628.614049 538.022121a20.825319 20.825319 0 0 1-15.098356-6.455849L418.382452 326.020372l-174.932681 178.785365a20.825319 20.825319 0 0 1-14.890103 6.247596H23.013767a20.825319 20.825319 0 0 1-20.825319-17.180888c-8.226001-46.648715 34.57003-172.017137 43.212537-196.69514a18.95104 18.95104 0 0 1 0.833013-1.978405c81.010492-171.704757 243.552108-244.489247 249.90383-247.508919 225.538207-107.458647 430.042841-0.728886 446.91135 8.434254 196.07038 88.71586 233.451828 259.066971 235.013728 266.355833a20.846145 20.846145 0 0 1-40.817626 8.538381c-0.62476-2.707291-36.131929-157.85592-212.105876-237.200386l-1.561899-0.833013c-1.978405-1.041266-199.090052-107.875153-410.154662-7.392988-2.082532 0.937139-155.252755 69.868946-229.078511 226.37122-15.723116 45.086816-37.693828 119.016699-41.650638 157.543539H219.084147l183.887569-187.948505a20.825319 20.825319 0 0 1 14.890103-6.247596 20.825319 20.825319 0 0 1 14.99423 6.455849L642.879393 503.035585a20.825319 20.825319 0 0 1-15.098356 35.19479z" p-id="11308"></path><path d="M512.617022 1023.980945a465.445884 465.445884 0 0 1-186.282481-37.069068c-215.750307-85.487935-268.125985-256.567932-270.729149-263.752668a20.835732 20.835732 0 0 1 39.984613-11.766305c0 1.666026 49.876639 159.521945 246.259399 237.096259l1.353646 0.624759a455.449731 455.449731 0 0 0 389.745849-24.365623l2.394911-1.145393c0.937139 0 101.106925-41.650638 182.63805-177.015213a495.017837 495.017837 0 0 0 61.747071-191.80119H783.242044l-180.347264 177.015214a20.825319 20.825319 0 0 1-29.05132 0l-231.161043-224.184562a20.825319 20.825319 0 1 1 28.843067-29.676079l216.58332 210.023344 171.91301-168.997466a20.825319 20.825319 0 0 1 14.577723-5.935216h227.308359a20.825319 20.825319 0 0 1 20.825319 20.82532c-1.770152 122.557003-66.120388 229.078511-68.82768 233.868334-84.967302 141.091538-188.052632 187.948506-201.58909 193.675469a495.330217 495.330217 0 0 1-239.699423 62.580084z" p-id="11309"></path></svg>