<?xml version="1.0" standalone="no"?><!DOCTYPE svg PUBLIC "-//W3C//DTD SVG 1.1//EN" "http://www.w3.org/Graphics/SVG/1.1/DTD/svg11.dtd"><svg t="1554973987152" class="icon" style="" viewBox="0 0 1024 1024" version="1.1" xmlns="http://www.w3.org/2000/svg" p-id="9015" xmlns:xlink="http://www.w3.org/1999/xlink" width="200" height="200"><defs><style type="text/css"></style></defs><path d="M511.432344 738.525747c-8.917361 0-17.819241-1.976475-26.143144-5.903623L11.363443 508.305075l17.034844-35.777816 473.941239 224.317049c5.805574 2.766033 12.426508 2.72991 18.2166 0l473.95672-224.317049 17.029683 35.777816-473.946399 224.322209C529.287709 736.554432 520.370347 738.525747 511.432344 738.525747L511.432344 738.525747z" p-id="9016"></path><path d="M511.432344 1009.999536c-8.891559 0-17.819241-1.960994-26.122502-5.882981L34.838603 790.879121C13.675352 780.898695 0 759.338084 0 735.971295L0 516.309026c0-23.330666 13.654709-44.875795 34.823122-54.902666l183.997984-87.078446c9.887537-4.680583 21.746389-0.51089 26.452774 9.392128 4.716706 9.887537 0.485088 21.694784-9.423091 26.380527L51.873447 497.184176c-7.374369 3.493665-12.147841 11.002207-12.147841 19.12485l0 219.662269c0 8.138124 4.747669 15.646666 12.101396 19.109369l450.507363 213.252915c5.784932 2.709268 12.426508 2.709268 18.206279 0l450.486721-213.237434c7.379529-3.478184 12.127199-10.986726 12.127199-19.12485L983.154563 516.309026c0-8.122643-4.768311-15.631185-12.147841-19.135171l-183.972182-87.068125c-9.908179-4.690904-14.134637-16.49815-9.423091-26.380527 4.706385-9.882377 16.601361-14.077871 26.457935-9.392128l183.997984 87.078446c21.168412 10.026871 34.817961 31.577161 34.817961 54.902666l0 219.662269c0 23.361629-13.675352 44.9274-34.843764 54.928468l-450.466079 213.216792C529.272227 1008.038543 520.344545 1009.999536 511.432344 1009.999536L511.432344 1009.999536z" p-id="9017"></path><path d="M511.540715 485.118903c-10.981565 0-19.867964-8.870917-19.867964-19.806037L491.672751 41.877539c0-10.935121 8.886398-19.800877 19.867964-19.800877 10.976405 0 19.857642 8.865756 19.857642 19.800877l0 423.435327C531.403518 476.247987 522.52228 485.118903 511.540715 485.118903L511.540715 485.118903z" p-id="9018"></path><path d="M511.638764 491.925616c-5.088263 0-10.161044-1.930031-14.041748-5.805574-7.761407-7.730444-7.761407-20.265323 0-28.000927l142.16173-141.738568c7.756247-7.735604 20.316928-7.735604 28.088656 0 7.751086 7.730444 7.751086 20.265323 0 28.000927L525.680512 486.120042C521.799808 489.995585 516.711546 491.925616 511.638764 491.925616L511.638764 491.925616z" p-id="9019"></path><path d="M511.638764 491.925616c-5.088263 0-10.161044-1.930031-14.041748-5.805574L353.417528 342.358555c-7.756247-7.730444-7.756247-20.270483 0-28.006088 7.751086-7.735604 20.322088-7.735604 28.083495 0l144.174328 143.761488c7.756247 7.740765 7.756247 20.270483 0 28.000927C521.799808 489.995585 516.711546 491.925616 511.638764 491.925616L511.638764 491.925616z" p-id="9020"></path></svg>