<?xml version="1.0" standalone="no"?><!DOCTYPE svg PUBLIC "-//W3C//DTD SVG 1.1//EN" "http://www.w3.org/Graphics/SVG/1.1/DTD/svg11.dtd"><svg t="1554978157309" class="icon" style="" viewBox="0 0 1024 1024" version="1.1" xmlns="http://www.w3.org/2000/svg" p-id="14118" xmlns:xlink="http://www.w3.org/1999/xlink" width="200" height="200"><defs><style type="text/css"></style></defs><path d="M295.661972 457.915493c-18.028169 10.816901-28.84507 32.450704-28.845071 54.084507s10.816901 43.267606 28.845071 54.084507c18.028169 10.816901 43.267606 10.816901 61.295774 0s28.84507-32.450704 28.845071-54.084507-10.816901-43.267606-28.845071-54.084507c-18.028169-10.816901-39.661972-10.816901-61.295774 0z m183.887324 0c-18.028169 10.816901-28.84507 32.450704-28.845071 54.084507 0 32.450704 28.84507 61.295775 61.295775 61.295775s61.295775-28.84507 61.295775-61.295775c0-21.633803-10.816901-43.267606-32.450705-54.084507-18.028169-10.816901-43.267606-10.816901-61.295774 0zM973.521127 364.169014c-10.816901-32.450704-25.239437-64.901408-39.661972-93.746479-10.816901-21.633803-39.661972-21.633803-50.478873-3.605634-7.211268 10.816901-7.211268 25.239437 0 36.056338 57.690141 104.56338 72.112676 212.732394 39.661972 328.112676-64.901408 230.760563-302.873239 360.56338-530.028169 292.056339-165.859155-50.478873-288.450704-201.915493-302.87324-378.59155-3.605634-72.112676 7.211268-140.619718 36.056338-205.521127 79.323944-183.887324 277.633803-288.450704 472.338028-248.788732 43.267606 10.816901 86.535211 25.239437 126.197183 46.87324 7.211268 3.605634 14.422535 7.211268 21.633803 3.605633 14.422535-3.605634 25.239437-10.816901 25.239437-25.239436 3.605634-14.422535-3.605634-25.239437-18.028169-32.450705C645.408451 21.633803 530.028169 3.605634 407.43662 32.450704 183.887324 82.929577 25.239437 281.239437 25.239437 512c0 36.056338 3.605634 72.112676 10.816901 108.169014 61.295775 277.633803 342.535211 443.492958 609.352113 364.169014 191.098592-57.690141 328.112676-223.549296 346.140845-421.859155 10.816901-68.507042 3.605634-137.014085-18.028169-198.309859z m-248.788733 93.746479c-18.028169-10.816901-43.267606-10.816901-61.295774 0s-28.84507 32.450704-28.845071 54.084507 10.816901 43.267606 28.845071 54.084507c18.028169 10.816901 43.267606 10.816901 61.295774 0s28.84507-32.450704 28.845071-54.084507c3.605634-21.633803-10.816901-43.267606-28.845071-54.084507z" p-id="14119"></path></svg>