<?xml version="1.0" standalone="no"?><!DOCTYPE svg PUBLIC "-//W3C//DTD SVG 1.1//EN" "http://www.w3.org/Graphics/SVG/1.1/DTD/svg11.dtd"><svg t="1554974229972" class="icon" style="" viewBox="0 0 1024 1024" version="1.1" xmlns="http://www.w3.org/2000/svg" p-id="10493" xmlns:xlink="http://www.w3.org/1999/xlink" width="200" height="200"><defs><style type="text/css"></style></defs><path d="M981.088663 485.274518l-192.724599-192.724599c-15.357742-15.357742-38.54492-15.357742-53.902661 0-15.357742 15.357742-15.357742 38.54492 0 53.902662l127.228349 127.228348H491.598294c-23.187178 0-38.54492 15.357742-38.544919 38.54492 0 23.187178 15.357742 38.54492 38.544919 38.54492h370.091458l-127.228349 127.228349c-15.357742 15.357742-15.357742 38.54492 0 53.902661 7.678871 7.678871 15.357742 11.593589 26.95133 11.593589 11.593589 0 19.27246-3.914718 26.951331-11.593589l192.724599-196.639318s0-3.914718 3.914719-3.914718c11.593589-11.443023 11.593589-34.479635-3.914719-46.073225z m0 0" p-id="10494"></path><path d="M877.047493 782.040288c-23.187178 0-38.54492 15.357742-38.54492 38.54492v77.08984c0 23.187178-15.357742 38.54492-38.54492 38.54492H144.694016c-23.187178 0-38.54492-15.357742-38.54492-38.54492v-770.898398c0-23.187178 15.357742-38.54492 38.54492-38.544919h655.263637c23.187178 0 38.54492 15.357742 38.54492 38.544919v77.08984c0 23.187178 15.357742 38.54492 38.54492 38.54492 23.187178 0 38.54492-15.357742 38.54492-38.54492V126.77665c0-65.496251-50.138509-115.63476-115.63476-115.634759H144.694016C79.197765 11.141891 29.059256 61.2804 29.059256 126.77665v770.898398c0 65.496251 50.138509 115.63476 115.63476 115.634759h655.263637c65.496251 0 115.63476-50.138509 115.63476-115.634759V820.585208c0-23.187178-15.357742-38.54492-38.54492-38.54492z m0 0" p-id="10495"></path></svg>