<?xml version="1.0" standalone="no"?><!DOCTYPE svg PUBLIC "-//W3C//DTD SVG 1.1//EN" "http://www.w3.org/Graphics/SVG/1.1/DTD/svg11.dtd"><svg t="1554977981181" class="icon" style="" viewBox="0 0 1024 1024" version="1.1" xmlns="http://www.w3.org/2000/svg" p-id="12618" xmlns:xlink="http://www.w3.org/1999/xlink" width="200" height="200"><defs><style type="text/css"></style></defs><path d="M62.822814 890.372583l896.02635 0 0 70.00233-896.02635 0 0-70.00233Z" p-id="12619"></path><path d="M62.822814 64.34754l70.00233 0 0 896.02635-70.00233 0 0-896.02635Z" p-id="12620"></path><path d="M260.578784 767.868505c-46.393633 0-84.002183-37.608549-84.002183-84.002183 0-46.393633 37.608549-84.002183 84.002183-84.002183 2.474354 0 4.919033 0.12996 7.340175 0.337691l90.295516-150.492526c-8.610098-13.186324-13.632485-28.92989-13.632485-45.853327 0-46.393633 37.608549-84.002183 84.002183-84.002183s84.002183 37.608549 84.002183 84.002183c0 16.924461-5.022387 32.66598-13.632485 45.853327l90.295516 150.492526c2.420119-0.207731 4.864798-0.337691 7.340175-0.337691 1.868557 0 3.716648 0.081864 5.556553 0.201591l149.066037-260.864286c-9.218966-13.482059-14.617929-29.782304-14.617929-47.347354 0-46.393633 37.608549-84.002183 84.002183-84.002183 46.393633 0 84.002183 37.608549 84.002183 84.002183s-37.608549 84.002183-84.002183 84.002183c-1.87265 0-3.716648-0.081864-5.556553-0.202615L665.97279 636.518968c9.218966 13.481036 14.617929 29.782304 14.617929 47.347354 0 46.393633-37.608549 84.002183-84.002183 84.002183-46.393633 0-84.002183-37.608549-84.002183-84.002183 0-16.923438 5.022387-32.66598 13.631462-45.853327l-90.293469-150.490479c-2.420119 0.208754-4.864798 0.337691-7.340175 0.337691s-4.919033-0.127913-7.340175-0.337691l-90.295516 150.492526c8.610098 13.1853 13.632485 28.927843 13.632485 45.851281C344.580966 730.259956 306.972417 767.868505 260.578784 767.868505L260.578784 767.868505z" p-id="12621"></path></svg>