<?xml version="1.0" standalone="no"?><!DOCTYPE svg PUBLIC "-//W3C//DTD SVG 1.1//EN" "http://www.w3.org/Graphics/SVG/1.1/DTD/svg11.dtd"><svg t="1554977999391" class="icon" style="" viewBox="0 0 1030 1024" version="1.1" xmlns="http://www.w3.org/2000/svg" p-id="13358" xmlns:xlink="http://www.w3.org/1999/xlink" width="201.171875" height="200"><defs><style type="text/css"></style></defs><path d="M185.6 729.6c-57.6 0-108.8 51.2-108.8 108.8 0 57.6 51.2 108.8 108.8 108.8h659.2c57.6 0 108.8-51.2 108.8-108.8 0-57.6-51.2-108.8-108.8-108.8H185.6z m0-70.4h659.2c102.4 0 185.6 83.2 185.6 185.6s-89.6 179.2-192 179.2H185.6C83.2 1024 0 940.8 0 838.4s83.2-179.2 185.6-179.2zM512 512c121.6 0 217.6-96 217.6-217.6S633.6 76.8 512 76.8 294.4 172.8 294.4 294.4 390.4 512 512 512z m0 70.4c-160 0-294.4-128-294.4-294.4S352 0 512 0s294.4 128 294.4 294.4S672 582.4 512 582.4z" p-id="13359"></path></svg>